<mxfile host="app.diagrams.net" agent="Mozilla/5.0 (X11; Linux x86_64; rv:128.0) Gecko/20100101 Firefox/128.0" version="26.0.16">
  <diagram name="Page-1" id="wnDVQPhdN0yrqGdEhT5-">
    <mxGraphModel dx="1196" dy="662" grid="1" gridSize="10" guides="1" tooltips="1" connect="1" arrows="1" fold="1" page="1" pageScale="1" pageWidth="850" pageHeight="1100" background="#ffffff" math="0" shadow="0">
      <root>
        <mxCell id="0" />
        <mxCell id="1" parent="0" />
        <mxCell id="FzjDU5e3YEK2CfJTqNCw-419" value="cPanel Hosting Environment" style="whiteSpace=wrap;strokeWidth=2;" parent="1" vertex="1">
          <mxGeometry x="20" y="281" width="2084" height="723" as="geometry" />
        </mxCell>
        <mxCell id="FzjDU5e3YEK2CfJTqNCw-420" value="Application Components" style="whiteSpace=wrap;strokeWidth=2;" parent="1" vertex="1">
          <mxGeometry x="40" y="306" width="1345" height="373" as="geometry" />
        </mxCell>
        <mxCell id="FzjDU5e3YEK2CfJTqNCw-421" value="Desktop Computer" style="whiteSpace=wrap;strokeWidth=2;" parent="1" vertex="1">
          <mxGeometry x="1365" y="20" width="194" height="48" as="geometry" />
        </mxCell>
        <mxCell id="FzjDU5e3YEK2CfJTqNCw-422" value="Laptop" style="whiteSpace=wrap;strokeWidth=2;" parent="1" vertex="1">
          <mxGeometry x="1608" y="20" width="109" height="48" as="geometry" />
        </mxCell>
        <mxCell id="FzjDU5e3YEK2CfJTqNCw-423" value="Tablet" style="whiteSpace=wrap;strokeWidth=2;" parent="1" vertex="1">
          <mxGeometry x="1767" y="20" width="103" height="48" as="geometry" />
        </mxCell>
        <mxCell id="FzjDU5e3YEK2CfJTqNCw-424" value="Mobile Phone" style="whiteSpace=wrap;strokeWidth=2;" parent="1" vertex="1">
          <mxGeometry x="1920" y="20" width="158" height="48" as="geometry" />
        </mxCell>
        <mxCell id="FzjDU5e3YEK2CfJTqNCw-425" value="Internet" style="ellipse;aspect=fixed;strokeWidth=2;whiteSpace=wrap;" parent="1" vertex="1">
          <mxGeometry x="1580" y="140" width="69" height="69" as="geometry" />
        </mxCell>
        <mxCell id="FzjDU5e3YEK2CfJTqNCw-426" value="Web Server&#xa;Apache" style="whiteSpace=wrap;strokeWidth=2;" parent="1" vertex="1">
          <mxGeometry x="1509" y="331" width="212" height="48" as="geometry" />
        </mxCell>
        <mxCell id="FzjDU5e3YEK2CfJTqNCw-427" value="Application Server" style="whiteSpace=wrap;strokeWidth=2;" parent="1" vertex="1">
          <mxGeometry x="1520" y="469" width="190" height="48" as="geometry" />
        </mxCell>
        <mxCell id="FzjDU5e3YEK2CfJTqNCw-428" value="MySQL Database" style="shape=cylinder3;boundedLbl=1;backgroundOutline=1;size=10;strokeWidth=2;whiteSpace=wrap;" parent="1" vertex="1">
          <mxGeometry x="1792" y="752" width="141" height="73" as="geometry" />
        </mxCell>
        <mxCell id="FzjDU5e3YEK2CfJTqNCw-429" value="File Storage&#xa;PDF Reports, Images" style="whiteSpace=wrap;strokeWidth=2;" parent="1" vertex="1">
          <mxGeometry x="1430" y="914" width="257" height="66" as="geometry" />
        </mxCell>
        <mxCell id="FzjDU5e3YEK2CfJTqNCw-430" value="Session Cache" style="whiteSpace=wrap;strokeWidth=2;" parent="1" vertex="1">
          <mxGeometry x="1564" y="598" width="168" height="48" as="geometry" />
        </mxCell>
        <mxCell id="FzjDU5e3YEK2CfJTqNCw-431" value="Authentication Module" style="whiteSpace=wrap;strokeWidth=2;" parent="1" vertex="1">
          <mxGeometry x="1132" y="598" width="218" height="48" as="geometry" />
        </mxCell>
        <mxCell id="FzjDU5e3YEK2CfJTqNCw-432" value="Equipment Module" style="whiteSpace=wrap;strokeWidth=2;" parent="1" vertex="1">
          <mxGeometry x="242" y="598" width="193" height="48" as="geometry" />
        </mxCell>
        <mxCell id="FzjDU5e3YEK2CfJTqNCw-433" value="Personnel Module" style="whiteSpace=wrap;strokeWidth=2;" parent="1" vertex="1">
          <mxGeometry x="485" y="598" width="189" height="48" as="geometry" />
        </mxCell>
        <mxCell id="FzjDU5e3YEK2CfJTqNCw-434" value="Unit Module" style="whiteSpace=wrap;strokeWidth=2;" parent="1" vertex="1">
          <mxGeometry x="724" y="598" width="145" height="48" as="geometry" />
        </mxCell>
        <mxCell id="FzjDU5e3YEK2CfJTqNCw-435" value="Reporting Module" style="whiteSpace=wrap;strokeWidth=2;" parent="1" vertex="1">
          <mxGeometry x="148" y="331" width="186" height="48" as="geometry" />
        </mxCell>
        <mxCell id="FzjDU5e3YEK2CfJTqNCw-436" value="Admin Module" style="whiteSpace=wrap;strokeWidth=2;" parent="1" vertex="1">
          <mxGeometry x="919" y="598" width="162" height="48" as="geometry" />
        </mxCell>
        <mxCell id="FzjDU5e3YEK2CfJTqNCw-437" value="OTP Service" style="whiteSpace=wrap;strokeWidth=2;" parent="1" vertex="1">
          <mxGeometry x="2182" y="764" width="151" height="48" as="geometry" />
        </mxCell>
        <mxCell id="FzjDU5e3YEK2CfJTqNCw-438" value="Digital Signature Service" style="whiteSpace=wrap;strokeWidth=2;" parent="1" vertex="1">
          <mxGeometry x="2139" y="598" width="235" height="48" as="geometry" />
        </mxCell>
        <mxCell id="FzjDU5e3YEK2CfJTqNCw-439" value="Logging &amp; Auditing System" style="whiteSpace=wrap;strokeWidth=2;" parent="1" vertex="1">
          <mxGeometry x="2425" y="589" width="230" height="66" as="geometry" />
        </mxCell>
        <mxCell id="FzjDU5e3YEK2CfJTqNCw-440" value="Backup Storage" style="whiteSpace=wrap;strokeWidth=2;" parent="1" vertex="1">
          <mxGeometry x="2139" y="923" width="174" height="48" as="geometry" />
        </mxCell>
        <mxCell id="FzjDU5e3YEK2CfJTqNCw-441" value="HTTPS" style="curved=1;startArrow=none;endArrow=block;exitX=0.5;exitY=1;entryX=0;entryY=0.27;rounded=0;" parent="1" source="FzjDU5e3YEK2CfJTqNCw-421" target="FzjDU5e3YEK2CfJTqNCw-425" edge="1">
          <mxGeometry relative="1" as="geometry">
            <Array as="points">
              <mxPoint x="1462" y="104" />
            </Array>
          </mxGeometry>
        </mxCell>
        <mxCell id="FzjDU5e3YEK2CfJTqNCw-442" value="HTTPS" style="curved=1;startArrow=none;endArrow=block;exitX=0.5;exitY=1;entryX=0.85;entryY=0;rounded=0;" parent="1" source="FzjDU5e3YEK2CfJTqNCw-422" target="FzjDU5e3YEK2CfJTqNCw-425" edge="1">
          <mxGeometry relative="1" as="geometry">
            <Array as="points">
              <mxPoint x="1663" y="104" />
            </Array>
          </mxGeometry>
        </mxCell>
        <mxCell id="FzjDU5e3YEK2CfJTqNCw-443" value="HTTPS" style="curved=1;startArrow=none;endArrow=block;exitX=0.5;exitY=1;entryX=1;entryY=0.33;rounded=0;" parent="1" source="FzjDU5e3YEK2CfJTqNCw-423" target="FzjDU5e3YEK2CfJTqNCw-425" edge="1">
          <mxGeometry relative="1" as="geometry">
            <Array as="points">
              <mxPoint x="1819" y="104" />
            </Array>
          </mxGeometry>
        </mxCell>
        <mxCell id="FzjDU5e3YEK2CfJTqNCw-444" value="HTTPS" style="curved=1;startArrow=none;endArrow=block;exitX=0.5;exitY=1;entryX=1;entryY=0.41;rounded=0;" parent="1" source="FzjDU5e3YEK2CfJTqNCw-424" target="FzjDU5e3YEK2CfJTqNCw-425" edge="1">
          <mxGeometry relative="1" as="geometry">
            <Array as="points">
              <mxPoint x="1999" y="104" />
            </Array>
          </mxGeometry>
        </mxCell>
        <mxCell id="FzjDU5e3YEK2CfJTqNCw-445" value="HTTPS" style="curved=1;startArrow=none;endArrow=block;exitX=0.5;exitY=1.01;entryX=0.5;entryY=0.01;rounded=0;" parent="1" source="FzjDU5e3YEK2CfJTqNCw-425" target="FzjDU5e3YEK2CfJTqNCw-426" edge="1">
          <mxGeometry relative="1" as="geometry">
            <Array as="points" />
          </mxGeometry>
        </mxCell>
        <mxCell id="FzjDU5e3YEK2CfJTqNCw-446" value="PHP 8.x" style="curved=1;startArrow=none;endArrow=block;exitX=0.5;exitY=1.01;entryX=0.5;entryY=0;rounded=0;" parent="1" source="FzjDU5e3YEK2CfJTqNCw-426" target="FzjDU5e3YEK2CfJTqNCw-427" edge="1">
          <mxGeometry relative="1" as="geometry">
            <Array as="points" />
          </mxGeometry>
        </mxCell>
        <mxCell id="FzjDU5e3YEK2CfJTqNCw-447" value="SQL Queries" style="curved=1;startArrow=none;endArrow=block;exitX=0.17;exitY=1;entryX=0;entryY=0.32;rounded=0;" parent="1" source="FzjDU5e3YEK2CfJTqNCw-427" target="FzjDU5e3YEK2CfJTqNCw-428" edge="1">
          <mxGeometry x="-0.3132" y="9" relative="1" as="geometry">
            <Array as="points">
              <mxPoint x="1461" y="553" />
              <mxPoint x="1461" y="716" />
            </Array>
            <mxPoint as="offset" />
          </mxGeometry>
        </mxCell>
        <mxCell id="FzjDU5e3YEK2CfJTqNCw-448" value="File System" style="curved=1;startArrow=none;endArrow=block;exitX=0.32;exitY=1;entryX=0.45;entryY=0;rounded=0;" parent="1" source="FzjDU5e3YEK2CfJTqNCw-427" target="FzjDU5e3YEK2CfJTqNCw-429" edge="1">
          <mxGeometry x="0.4053" y="1" relative="1" as="geometry">
            <Array as="points">
              <mxPoint x="1529" y="553" />
              <mxPoint x="1529" y="869" />
            </Array>
            <mxPoint as="offset" />
          </mxGeometry>
        </mxCell>
        <mxCell id="FzjDU5e3YEK2CfJTqNCw-449" value="Session Data" style="curved=1;startArrow=none;endArrow=block;exitX=0.57;exitY=1;entryX=0.5;entryY=0;rounded=0;" parent="1" source="FzjDU5e3YEK2CfJTqNCw-427" target="FzjDU5e3YEK2CfJTqNCw-430" edge="1">
          <mxGeometry relative="1" as="geometry">
            <Array as="points">
              <mxPoint x="1648" y="553" />
            </Array>
          </mxGeometry>
        </mxCell>
        <mxCell id="FzjDU5e3YEK2CfJTqNCw-450" value="API Calls" style="curved=1;startArrow=none;endArrow=block;exitX=0.89;exitY=1;entryX=0;entryY=0.25;rounded=0;" parent="1" source="FzjDU5e3YEK2CfJTqNCw-427" target="FzjDU5e3YEK2CfJTqNCw-437" edge="1">
          <mxGeometry x="0.4435" y="7" relative="1" as="geometry">
            <Array as="points">
              <mxPoint x="1802" y="553" />
              <mxPoint x="1802" y="716" />
            </Array>
            <mxPoint as="offset" />
          </mxGeometry>
        </mxCell>
        <mxCell id="FzjDU5e3YEK2CfJTqNCw-451" value="API Calls" style="curved=1;startArrow=none;endArrow=block;exitX=1;exitY=0.92;entryX=0;entryY=0.02;rounded=0;" parent="1" source="FzjDU5e3YEK2CfJTqNCw-427" target="FzjDU5e3YEK2CfJTqNCw-438" edge="1">
          <mxGeometry relative="1" as="geometry">
            <Array as="points">
              <mxPoint x="1899" y="553" />
            </Array>
          </mxGeometry>
        </mxCell>
        <mxCell id="FzjDU5e3YEK2CfJTqNCw-452" value="Generate Report" style="curved=1;startArrow=none;endArrow=block;exitX=0.32;exitY=1.01;entryX=0;entryY=0.39;rounded=0;" parent="1" source="FzjDU5e3YEK2CfJTqNCw-435" target="FzjDU5e3YEK2CfJTqNCw-429" edge="1">
          <mxGeometry x="0.0234" y="41" relative="1" as="geometry">
            <Array as="points">
              <mxPoint x="145" y="424" />
              <mxPoint x="145" y="869" />
            </Array>
            <mxPoint as="offset" />
          </mxGeometry>
        </mxCell>
        <mxCell id="FzjDU5e3YEK2CfJTqNCw-453" value="Apply E-Signature" style="curved=1;startArrow=none;endArrow=block;exitX=1;exitY=0.8;entryX=0;entryY=0.39;rounded=0;" parent="1" source="FzjDU5e3YEK2CfJTqNCw-435" target="FzjDU5e3YEK2CfJTqNCw-438" edge="1">
          <mxGeometry relative="1" as="geometry">
            <Array as="points">
              <mxPoint x="702" y="424" />
              <mxPoint x="702" y="553" />
              <mxPoint x="1420" y="550" />
            </Array>
          </mxGeometry>
        </mxCell>
        <mxCell id="FzjDU5e3YEK2CfJTqNCw-454" value="Verify via OTP" style="curved=1;startArrow=none;endArrow=block;exitX=0.5;exitY=1;entryX=0.5;entryY=0;rounded=0;" parent="1" source="FzjDU5e3YEK2CfJTqNCw-438" target="FzjDU5e3YEK2CfJTqNCw-437" edge="1">
          <mxGeometry relative="1" as="geometry">
            <Array as="points" />
          </mxGeometry>
        </mxCell>
        <mxCell id="FzjDU5e3YEK2CfJTqNCw-455" value="Confirm &amp; Store Signed Report" style="curved=1;startArrow=none;endArrow=block;exitX=0.01;exitY=1;entryX=1;entryY=0.16;rounded=0;" parent="1" source="FzjDU5e3YEK2CfJTqNCw-437" target="FzjDU5e3YEK2CfJTqNCw-429" edge="1">
          <mxGeometry x="0.4313" relative="1" as="geometry">
            <Array as="points">
              <mxPoint x="2008" y="869" />
            </Array>
            <mxPoint as="offset" />
          </mxGeometry>
        </mxCell>
        <mxCell id="FzjDU5e3YEK2CfJTqNCw-456" value="Send Signed Report to Higher-Level Moderator" style="curved=1;startArrow=none;endArrow=block;exitX=1;exitY=0.74;entryX=0;entryY=0.33;rounded=0;" parent="1" source="FzjDU5e3YEK2CfJTqNCw-435" target="FzjDU5e3YEK2CfJTqNCw-427" edge="1">
          <mxGeometry relative="1" as="geometry">
            <Array as="points">
              <mxPoint x="808" y="424" />
            </Array>
          </mxGeometry>
        </mxCell>
        <mxCell id="FzjDU5e3YEK2CfJTqNCw-457" value="Log Actions" style="curved=1;startArrow=none;endArrow=block;exitX=1;exitY=0.81;entryX=0;entryY=0.27;rounded=0;" parent="1" source="FzjDU5e3YEK2CfJTqNCw-427" target="FzjDU5e3YEK2CfJTqNCw-439" edge="1">
          <mxGeometry relative="1" as="geometry">
            <Array as="points">
              <mxPoint x="2002" y="553" />
              <mxPoint x="2220" y="540" />
            </Array>
          </mxGeometry>
        </mxCell>
        <mxCell id="FzjDU5e3YEK2CfJTqNCw-458" value="Store Logs" style="curved=1;startArrow=none;endArrow=block;exitX=0;exitY=0.65;entryX=0.5;entryY=-0.01;rounded=0;" parent="1" source="FzjDU5e3YEK2CfJTqNCw-439" target="FzjDU5e3YEK2CfJTqNCw-428" edge="1">
          <mxGeometry x="0.2172" y="15" relative="1" as="geometry">
            <Array as="points">
              <mxPoint x="2380" y="680" />
              <mxPoint x="1862" y="680" />
            </Array>
            <mxPoint as="offset" />
          </mxGeometry>
        </mxCell>
        <mxCell id="FzjDU5e3YEK2CfJTqNCw-459" value="Daily Backup" style="curved=1;dashed=1;dashPattern=2 3;startArrow=none;endArrow=block;exitX=0.5;exitY=0.99;entryX=0;entryY=0.11;rounded=0;" parent="1" source="FzjDU5e3YEK2CfJTqNCw-428" target="FzjDU5e3YEK2CfJTqNCw-440" edge="1">
          <mxGeometry x="0.1332" y="-1" relative="1" as="geometry">
            <Array as="points">
              <mxPoint x="1862" y="869" />
            </Array>
            <mxPoint as="offset" />
          </mxGeometry>
        </mxCell>
        <mxCell id="FzjDU5e3YEK2CfJTqNCw-460" value="" style="curved=1;startArrow=none;endArrow=block;rounded=0;" parent="1" source="FzjDU5e3YEK2CfJTqNCw-427" target="FzjDU5e3YEK2CfJTqNCw-420" edge="1">
          <mxGeometry relative="1" as="geometry">
            <Array as="points" />
          </mxGeometry>
        </mxCell>
      </root>
    </mxGraphModel>
  </diagram>
</mxfile>
